# xmcd
#
# Track frame offsets:
#       150
#       12215
#       26340
#       39649
#       53180
#       66118
#       80510
#       93000
#       111981
#       121933
#       133259
#       146468
#       158593
#       170730
#       188408
#       201697
#       212368
#       227429
#       239708
#       252234
#       266853
#       281778
#       291451
#       303682
#
# Disc length: 4270 seconds
#
# Revision: 1
# Processed by: cddbd v1.4PL0 Copyright (c) Steve Scherf et al.
# Submitted via: MusiCat 1.1
#
DISCID=6510ac18
DTITLE=Zé Garoto and Timboré - Dose Dupla - Espora de Ouro
DYEAR=1900
DGENRE=
TTITLE0=Espora de Ouro
TTITLE1=Diabinha deixa disso
TTITLE2=Vou aonde tem amor
TTITLE3=Ninho de saudade
TTITLE4=Fim do mapa
TTITLE5=Dois irmãos
TTITLE6=Sagrado é o seu nome
TTITLE7=Amigo fiél
TTITLE8=Mulher alheia
TTITLE9=carreiro da serra
TTITLE10=desaforo do meu bem
TTITLE11=Bariga cheia
TTITLE12=Na boca deste leão
TTITLE13=Porco gordo
TTITLE14=Viola, minha viola
TTITLE15=De que adianta
TTITLE16=Domingo à tarde
TTITLE17=Festa longe
TTITLE18=Bituca de cigarro
TTITLE19=Venenoso
TTITLE20=Alô mineirada
TTITLE21=Postal de Ouro
TTITLE22=Grande cidadão
TTITLE23=Chegou a hora da onça beber água
EXTD=\n\n
EXTT0=
EXTT1=
EXTT2=
EXTT3=
EXTT4=
EXTT5=
EXTT6=
EXTT7=
EXTT8=
EXTT9=
EXTT10=
EXTT11=
EXTT12=
EXTT13=
EXTT14=
EXTT15=
EXTT16=
EXTT17=
EXTT18=
EXTT19=
EXTT20=
EXTT21=
EXTT22=
EXTT23=
PLAYORDER=
